# xmcd
#
# Track frame offsets:
# 150
# 28328
# 48421
# 60545
# 76371
# 96403
# 110466
# 126851
# 147029
# 164156
# 181152
# 196282
# 214751
# 231505
# 247847
# 262498
# 279244
# 298872
# 314965
#
# Disc length: 4400 seconds
#
#
# Revision: 1
# Processed by: cddbd v1.5.1PL2 Copyright (c) Steve Scherf et al.
# Submitted via: FreeRIP 2.90 
#
DISCID=2f112e13
DTITLE=Grupo Rodeio - Portal da História Ao Vivo
DYEAR=2005
DGENRE=Gaucho
TTITLE0=A Voz do Rio Grande
TTITLE1=Abram Cancha Pro Rio Grande
TTITLE2=Liberdade Xucra
TTITLE3=De Tranco e Vanera
TTITLE4=Chovendo Vaneira
TTITLE5=Sina de Andejo
TTITLE6=Iguaria Campeira
TTITLE7=De Tanto Pelar
TTITLE8=Gaúchos de Fato
TTITLE9=Portal Da História
TTITLE10=Cem Anos De Glória
TTITLE11=Deus Gaúcho
TTITLE12=Gritos de Liberdade
TTITLE13=Insana Guerra
TTITLE14=Meu Medo
TTITLE15=Xote na Chuva
TTITLE16=Desabei
TTITLE17=Figueira da Paixão
TTITLE18=Lamentos
EXTD=
EXTT0=
EXTT1=
EXTT2=
EXTT3=
EXTT4=
EXTT5=
EXTT6=
EXTT7=
EXTT8=
EXTT9=
EXTT10=
EXTT11=
EXTT12=
EXTT13=
EXTT14=
EXTT15=
EXTT16=
EXTT17=
EXTT18=
PLAYORDER=
